<svg xmlns="http://www.w3.org/2000/svg" viewBox="0 0 800.96 411.26">
        <defs>
          <style>
          svg{filter: invert(100%) grayscale(100%);}
          .cls-1{font-size:25.4px;fill:#131313;font-family:'Open Sans', sans-serif;font-weight:600;}
          .cls-2{letter-spacing:0.04em;}.cls-3{letter-spacing:-0.06em;}.cls-4{letter-spacing:-0.01em;}.cls-5{letter-spacing:-0.01em;}.cls-6{letter-spacing:0em;}.cls-7{letter-spacing:-0.08em;}
          .cls-8{font-size:141.11px;font-family:'Open Sans', sans-serif;font-weight:800;}.cls-12,.cls-8{fill:#192d19;}.cls-9{fill:#e3614f;}.cls-10{letter-spacing:0em;}.cls-11{fill:#e3614f;}
          </style>
        </defs>
        <title>
          Asset 3
        </title>
        <g id="Layer_2" data-name="Layer 2">
          <g id="Layer_1-2" data-name="Layer 1">            
            <text class="cls-8" transform="translate(310.32 253.05)">
                SM<tspan class="cls-9" x="235.01" y="0">I</tspan><tspan class="cls-10" x="290.74" y="0">LE</tspan>
            </text>
            <text/>
            <path class="cls-11" d="M81.61,100.24,9.9,72.11,170.42,0,340.13,80.9l-76.5,22.86-3.52,34.29s-80.9-116.73-179.38-.88l.88-36.93"/>
            <path class="cls-11" d="M235.4,311.74a11.65,11.65,0,0,0-14.39-8L95.53,341.5a11.65,11.65,0,0,0-7.48,14.68h0a11.65,11.65,0,0,0,14.39,8l125.48-37.77a11.65,11.65,0,0,0,7.48-14.67Z"/>
            <path class="cls-12" d="M238,339.87a11.65,11.65,0,0,0-14.39-8L98.16,369.64a11.65,11.65,0,0,0-7.47,14.67h0a11.65,11.65,0,0,0,14.38,8l125.49-37.77A11.65,11.65,0,0,0,238,339.87Z"/>
            <path class="cls-11" d="M212.54,376.8a11.65,11.65,0,0,0-14.39-8L130.7,388.11a11.65,11.65,0,0,0-7.48,14.67h0a11.65,11.65,0,0,0,14.39,8l67.45-19.3a11.66,11.66,0,0,0,7.48-14.68Z"/>
            <path class="cls-12" d="M227.77,275.52c-22.39-1.38-44.37-4.51-64.71-14-.44-.21-8.69-3.1-8.95-3.39-14.79-6.85-7.19-3.13-14-6.35a72.21,72.21,0,0,1-10.87-6.36l-.4-.35h-.1a72.2,72.2,0,1,1,49.79,13.23,172.22,172.22,0,0,0,37,9.41A92.66,92.66,0,1,0,99.2,245.11H99s1.52,1.86,4.45,4.81a92.94,92.94,0,0,0,14.51,12.56,142.25,142.25,0,0,0,56.22,25.71l2,.41L94.87,312.93a11.86,11.86,0,0,0,6.91,22.67l125.48-37.77a11.65,11.65,0,0,0,7.48-14.67A11.91,11.91,0,0,0,227.77,275.52Z"/>
            <path class="cls-11" d="M128.15,274.42l-31.74,8.17a11.86,11.86,0,0,0,6.91,22.67L147,293.87c1-.31,12.5-3.44,13.37-4C147.22,286.79,135.43,279.64,128.15,274.42Z"/>
            <path class="cls-11" d="M13.52,150.25a1.65,1.65,0,0,1-1.65,1.65h0a1.65,1.65,0,0,1-1.65-1.65V72.43a1.65,1.65,0,0,1,1.65-1.65h0a1.65,1.65,0,0,1,1.65,1.65Z"/>
            <circle class="cls-11" cx="11.87" cy="160.47" r="11.87"/>
            <path class="cls-11" d="M183.38,170.39,200.47,153l-3.69-4.51L186,156a32.94,32.94,0,0,0-11.89-4.42l-1.52-12.12-10.8.2-1.63,13.11h0c-4.54,1-8.5,2.08-12.56,4.82l-9.3-6.35L130.5,159l6.58,9.08a37.88,37.88,0,0,0-5.22,11.36l-12.26,3.65-.16,8.59,11.67,3.18a32.7,32.7,0,0,0,4.43,11.72l-6.31,10.25,4.23,4.25,16.19-16.45s-12.72-15.81,3.55-31.37C153.2,173.29,165.22,159.12,183.38,170.39Z"/>
            <path class="cls-11" d="M189.77,176.77l17.36-17.09,4.52,3.7-7.5,10.8a32.88,32.88,0,0,1,4.42,11.89l12.12,1.52-.21,10.79L207.38,200h0c-1,4.53-2.08,8.49-4.83,12.56l6.36,9.29-7.79,7.79-9.07-6.58a37.72,37.72,0,0,1-11.36,5.21L177,240.55l-8.59.17-3.18-11.67a32.72,32.72,0,0,1-11.72-4.44l-10.25,6.32-4.25-4.23,16.45-16.19s15.81,12.71,31.37-3.55C186.87,207,201,194.94,189.77,176.77Z"/>
            <path class="cls-12" d="M183.53,191.26a13.61,13.61,0,1,1-13.61-13.61A13.61,13.61,0,0,1,183.53,191.26Z"/>
          </g>
        </g>
      </svg>